
            <svg id="trend-chart" width="660" height="400" title="Stack Overflow Trends Chart" version="1.1" xmlns="http://www.w3.org/2000/svg"><g></g><g class="chart-area" transform="translate(100, 20)"><g transform="translate(0,300)" fill="none" font-size="10" font-family="sans-serif" text-anchor="middle"><path class="domain" stroke="#000" d="M0.5,6V0.5H410.5V6"></path><g class="tick" opacity="1" transform="translate(40.572185831058334,0)"><line stroke="#000" y2="6" x1="0.5" x2="0.5"></line><text fill="#000" y="9" x="0.5" dy="0.71em" style="font-size: 12px;">2010</text></g><g class="tick" opacity="1" transform="translate(97.74460566216442,0)"><line stroke="#000" y2="6" x1="0.5" x2="0.5"></line><text fill="#000" y="9" x="0.5" dy="0.71em" style="font-size: 12px;">2012</text></g><g class="tick" opacity="1" transform="translate(154.9953438766008,0)"><line stroke="#000" y2="6" x1="0.5" x2="0.5"></line><text fill="#000" y="9" x="0.5" dy="0.71em" style="font-size: 12px;">2014</text></g><g class="tick" opacity="1" transform="translate(212.16776370770688,0)"><line stroke="#000" y2="6" x1="0.5" x2="0.5"></line><text fill="#000" y="9" x="0.5" dy="0.71em" style="font-size: 12px;">2016</text></g><g class="tick" opacity="1" transform="translate(269.41850192214326,0)"><line stroke="#000" y2="6" x1="0.5" x2="0.5"></line><text fill="#000" y="9" x="0.5" dy="0.71em" style="font-size: 12px;">2018</text></g><g class="tick" opacity="1" transform="translate(326.59092175324935,0)"><line stroke="#000" y2="6" x1="0.5" x2="0.5"></line><text fill="#000" y="9" x="0.5" dy="0.71em" style="font-size: 12px;">2020</text></g><g class="tick" opacity="1" transform="translate(383.8416599676857,0)"><line stroke="#000" y2="6" x1="0.5" x2="0.5"></line><text fill="#000" y="9" x="0.5" dy="0.71em" style="font-size: 12px;">2022</text></g></g><g class="grid-lines" transform="translate(0,300)" fill="none" font-size="10" font-family="sans-serif" text-anchor="middle"><path class="domain" stroke="#000" d="M0.5,-300V0.5H410.5V-300"></path><g class="tick" opacity="1" transform="translate(40.572185831058334,0)"><line stroke="#000" y2="-300" x1="0.5" x2="0.5" style="stroke: #ccc; fill: none;"></line></g><g class="tick" opacity="1" transform="translate(97.74460566216442,0)"><line stroke="#000" y2="-300" x1="0.5" x2="0.5" style="stroke: #ccc; fill: none;"></line></g><g class="tick" opacity="1" transform="translate(154.9953438766008,0)"><line stroke="#000" y2="-300" x1="0.5" x2="0.5" style="stroke: #ccc; fill: none;"></line></g><g class="tick" opacity="1" transform="translate(212.16776370770688,0)"><line stroke="#000" y2="-300" x1="0.5" x2="0.5" style="stroke: #ccc; fill: none;"></line></g><g class="tick" opacity="1" transform="translate(269.41850192214326,0)"><line stroke="#000" y2="-300" x1="0.5" x2="0.5" style="stroke: #ccc; fill: none;"></line></g><g class="tick" opacity="1" transform="translate(326.59092175324935,0)"><line stroke="#000" y2="-300" x1="0.5" x2="0.5" style="stroke: #ccc; fill: none;"></line></g><g class="tick" opacity="1" transform="translate(383.8416599676857,0)"><line stroke="#000" y2="-300" x1="0.5" x2="0.5" style="stroke: #ccc; fill: none;"></line></g></g><text x="205" y="360" class="axis-label x-axis-label" style="text-anchor: middle; font-weight: bold;">Year</text><g fill="none" font-size="10" font-family="sans-serif" text-anchor="end"><path class="domain" stroke="#000" d="M-6,300.5H0.5V0.5H-6"></path><g class="tick" opacity="1" transform="translate(0,300)"><line stroke="#000" x2="-6" y1="0.5" y2="0.5"></line><text fill="#000" x="-9" y="0.5" dy="0.32em" style="font-size: 12px;">0.00%</text></g><g class="tick" opacity="1" transform="translate(0,266.6666666666667)"><line stroke="#000" x2="-6" y1="0.5" y2="0.5"></line><text fill="#000" x="-9" y="0.5" dy="0.32em" style="font-size: 12px;">2.00%</text></g><g class="tick" opacity="1" transform="translate(0,233.33333333333331)"><line stroke="#000" x2="-6" y1="0.5" y2="0.5"></line><text fill="#000" x="-9" y="0.5" dy="0.32em" style="font-size: 12px;">4.00%</text></g><g class="tick" opacity="1" transform="translate(0,200)"><line stroke="#000" x2="-6" y1="0.5" y2="0.5"></line><text fill="#000" x="-9" y="0.5" dy="0.32em" style="font-size: 12px;">6.00%</text></g><g class="tick" opacity="1" transform="translate(0,166.66666666666666)"><line stroke="#000" x2="-6" y1="0.5" y2="0.5"></line><text fill="#000" x="-9" y="0.5" dy="0.32em" style="font-size: 12px;">8.00%</text></g><g class="tick" opacity="1" transform="translate(0,133.33333333333331)"><line stroke="#000" x2="-6" y1="0.5" y2="0.5"></line><text fill="#000" x="-9" y="0.5" dy="0.32em" style="font-size: 12px;">10.00%</text></g><g class="tick" opacity="1" transform="translate(0,100)"><line stroke="#000" x2="-6" y1="0.5" y2="0.5"></line><text fill="#000" x="-9" y="0.5" dy="0.32em" style="font-size: 12px;">12.00%</text></g><g class="tick" opacity="1" transform="translate(0,66.66666666666663)"><line stroke="#000" x2="-6" y1="0.5" y2="0.5"></line><text fill="#000" x="-9" y="0.5" dy="0.32em" style="font-size: 12px;">14.00%</text></g><g class="tick" opacity="1" transform="translate(0,33.333333333333314)"><line stroke="#000" x2="-6" y1="0.5" y2="0.5"></line><text fill="#000" x="-9" y="0.5" dy="0.32em" style="font-size: 12px;">16.00%</text></g><g class="tick" opacity="1" transform="translate(0,0)"><line stroke="#000" x2="-6" y1="0.5" y2="0.5"></line><text fill="#000" x="-9" y="0.5" dy="0.32em" style="font-size: 12px;">18.00%</text></g></g><g class="grid-lines" fill="none" font-size="10" font-family="sans-serif" text-anchor="end"><path class="domain" stroke="#000" d="M410,300.5H0.5V0.5H410"></path><g class="tick" opacity="1" transform="translate(0,300)"><line stroke="#000" x2="410" y1="0.5" y2="0.5" style="stroke: #ccc; fill: none;"></line></g><g class="tick" opacity="1" transform="translate(0,266.6666666666667)"><line stroke="#000" x2="410" y1="0.5" y2="0.5" style="stroke: #ccc; fill: none;"></line></g><g class="tick" opacity="1" transform="translate(0,233.33333333333331)"><line stroke="#000" x2="410" y1="0.5" y2="0.5" style="stroke: #ccc; fill: none;"></line></g><g class="tick" opacity="1" transform="translate(0,200)"><line stroke="#000" x2="410" y1="0.5" y2="0.5" style="stroke: #ccc; fill: none;"></line></g><g class="tick" opacity="1" transform="translate(0,166.66666666666666)"><line stroke="#000" x2="410" y1="0.5" y2="0.5" style="stroke: #ccc; fill: none;"></line></g><g class="tick" opacity="1" transform="translate(0,133.33333333333331)"><line stroke="#000" x2="410" y1="0.5" y2="0.5" style="stroke: #ccc; fill: none;"></line></g><g class="tick" opacity="1" transform="translate(0,100)"><line stroke="#000" x2="410" y1="0.5" y2="0.5" style="stroke: #ccc; fill: none;"></line></g><g class="tick" opacity="1" transform="translate(0,66.66666666666663)"><line stroke="#000" x2="410" y1="0.5" y2="0.5" style="stroke: #ccc; fill: none;"></line></g><g class="tick" opacity="1" transform="translate(0,33.333333333333314)"><line stroke="#000" x2="410" y1="0.5" y2="0.5" style="stroke: #ccc; fill: none;"></line></g><g class="tick" opacity="1" transform="translate(0,0)"><line stroke="#000" x2="410" y1="0.5" y2="0.5" style="stroke: #ccc; fill: none;"></line></g></g><g class="lines"><path class="line" d="M2.4278698832387517,163.61551645063332L4.777421383147221,166.84744819915L7.208554532358068,172.66485709725L9.558106032266537,184.3388996112L11.98597591550529,177.80755487494997L14.413845798744042,184.63751438435L16.606760531991945,181.91766373315L19.031367149258603,178.94037219901668L21.38091864916707,181.38650354861664L23.808788532405824,174.17447488258335L26.158340032314293,182.60932883951665L28.58620991555304,187.40617180984998L31.014079798791794,184.78134467669997L33.36363129870026,184.12084805L35.79476444791111,179.27398111441667L38.144315947819585,180.42093257416667L40.572185831058334,160.76829870304996L43.00005571429709,165.89564160836665L45.19297044754499,157.19708667903333L47.61757706481165,169.81211864920002L49.96712856472011,165.2143831674833L52.39499844795886,171.06457621296667L54.74454994786734,175.3894080997L57.17241983110608,176.02455773918334L59.60028971434485,170.76509477958334L61.94984121425331,167.779987583L64.38097436346416,165.33447080881666L66.73052586337262,163.20604499001666L69.15839574661138,162.87796726873333L71.58626562985012,161.08750374346667L73.77918036309804,159.33949854506665L76.2037869803647,161.6877770186333L78.55333848027315,157.11567922621666L80.98120836351191,166.46728845635002L83.33075986342038,164.4037356322L85.75862974665912,164.47174569881668L88.18649962989788,163.6080514031L90.53605112980635,158.77858818175L92.9671842790172,152.0213366725667L95.31673577892568,151.6284136099833L97.74460566216442,154.03791043746668L100.17247554540317,152.19560393281665L102.44370866198136,144.99846198861667L104.86831527924801,144.0094437526L107.2178667791565,148.53008499035L109.64573666239524,158.00768106931665L111.99528816230371,155.51275151309994L114.42315804554245,154.93853488395L116.85102792878119,152.84163935175L119.2005794286897,149.19271113021668L121.63171257790052,146.00815157674998L123.98126407780899,146.34439366353337L126.40913396104776,154.25340792018332L128.8370038442865,150.08963283411668L131.0299185775344,146.52910604920004L133.45452519480105,141.52748833251664L135.80407669470952,146.44151741008332L138.23194657794826,152.66894406383332L140.58149807785676,156.08681527246665L143.0093679610955,151.98739513188332L145.43723784433425,135.68189180435L147.78678934424272,130.16536745493335L150.21792249345359,122.10843041434998L152.56747399336203,123.53310564719999L154.9953438766008,134.65242122756663L157.42321375983954,128.73974294455L159.61612849308744,123.02285618306666L162.04073511035412,120.41409948821666L164.3902866102626,129.40502800216666L166.81815649350133,136.08504695679997L169.16770799340978,135.95673750806665L171.59557787664855,138.94849961445L174.02344775988732,131.79187133688333L176.37299925979576,126.81376882396665L178.8041324090066,120.75352252789995L181.15368390891507,123.52662037786666L183.58155379215384,133.03122341383332L186.00942367539258,133.1500035869L188.2023384086405,125.45758512399999L190.62694502590713,124.96812538351665L192.9764965258156,132.47741811864998L195.40436640905435,140.60495613801666L197.75391790896285,139.50610922756667L200.1817877922016,141.91478496415L202.60965767544033,140.08226768728335L204.9592091753488,133.01444199421664L207.39034232455964,132.63826885621665L209.73989382446814,138.93704681575002L212.16776370770688,145.85387934713333L214.59563359094562,140.88764752361664L216.86686670752383,134.24097401764996L219.29147332479047,133.66223292926668L221.64102482469892,148.98423550543333L224.0688947079377,154.94871205405L226.4184462078462,158.00208409396666L228.8463160910849,159.56922963005L231.27418597432367,156.11821299369998L233.62373747423212,152.9366596792L236.054870623443,149.8180106984833L238.40442212335145,156.47917703668332L240.83229200659022,161.46263614255L243.26016188982896,160.17177989573332L245.45307662307687,155.5966927684833L247.87768324034352,150.03090397908335L250.22723474025202,152.74829556423333L252.65510462349073,162.01824399216667L255.0046561233992,167.78906921483332L257.432526006638,169.6030878535333L259.8603958898767,167.69387971265L262.2099473897852,161.51267422233335L264.64108053899605,158.88233454261663L266.9906320389045,161.43441151606666L269.41850192214326,170.49510523586667L271.84637180538203,167.77830587241667L274.0392865386299,168.01351130228332L276.4638931558965,160.30445110501665L278.81344465580503,164.70728966251667L281.2413145390438,171.38326868644998L283.59086603895224,175.95675862958333L286.018735922191,179.58128583130002L288.4466058054297,174.65565705433332L290.7961573053382,168.55652195883332L293.22729045454906,168.05273375773334L295.57684195445756,166.7310897731L298.0047118376963,175.3728067198L300.43258172093505,173.3166207301L302.62549645418295,173.83325672236666L305.0501030714496,177.17385318575L307.39965457135804,176.21268677554997L309.8275244545968,180.3108112143L312.17707595450526,178.98616377526668L314.604945837744,188.1368052473333L317.0328157209828,180.7052916642L319.38236722089124,176.15236047230002L321.81350037010213,182.73740868896667L324.1630518700106,185.22946472651665L326.59092175324935,185.73976150588334L329.01879163648806,183.45248215091667L331.2900247530663,180.72958825751667L333.71463137033294,183.90231145636665L336.06418287024144,191.59730157613333L338.49205275348015,193.88771269506668L340.84160425338865,194.1022737879333L343.26947413662737,194.37539020376664L345.69734401986614,193.68560533071667L348.04689551977464,193.85733627878335L350.4780286689855,194.25767164895L352.8275801688939,201.69706924656666L355.2554500521327,203.37310036063334L357.68331993537146,202.91448342526667L359.8762346686193,201.95812387356665L362.30084128588595,202.07118638208334L364.65039278579445,199.95428491051666L367.07826266903317,200.92802585959998L369.42781416894167,205.6299643488L371.85568405218044,206.79829086638333L374.28355393541915,207.21658156613333L376.63310543532765,207.00002820318332L379.0642385845385,202.48376605108334L381.413790084447,207.26148262235L383.8416599676857,209.2003229787333L386.26952985092447,211.57152551675L388.4624445841724,209.91748886168332L390.887051201439,205.79135984648332L393.23660270134746,207.51204072881666L395.66447258458624,213.73276750113334L398.0140240844947,217.81285623971667L400.44189396773345,220.50566721196665L402.8697638509722,217.6701924616833L405.21931535088066,217.03884668728335L407.6504485000915,217.05765292041667L410,215.56340563998333" data-legend="java" style="stroke: rgb(31, 119, 180); fill: none;"></path><path class="line" d="M2.4278698832387517,261.4985395997833L4.777421383147221,264.8866638854167L7.208554532358068,265.53834690511667L9.558106032266537,273.56717294621666L11.98597591550529,266.1817253701L14.413845798744042,268.25853471423335L16.606760531991945,264.5670589011L19.031367149258603,263.84035953918334L21.38091864916707,268.56578964566665L23.808788532405824,270.3168585938167L26.158340032314293,272.01764240836667L28.58620991555304,272.7653703189L31.014079798791794,270.8765594556833L33.36363129870026,264.0774628955L35.79476444791111,258.03687853886663L38.144315947819585,262.1303251445833L40.572185831058334,263.38763481878334L43.00005571429709,261.22373977155L45.19297044754499,264.1625488985L47.61757706481165,260.32944682736667L49.96712856472011,261.78541638378334L52.39499844795886,265.21938311121664L54.74454994786734,264.48377190076667L57.17241983110608,264.0283975231333L59.60028971434485,262.30762900173335L61.94984121425331,262.1439319801L64.38097436346416,259.63407992211665L66.73052586337262,264.58315238895L69.15839574661138,269.393153135L71.58626562985012,266.93619535569997L73.77918036309804,264.97189779568333L76.2037869803647,264.34890769258334L78.55333848027315,269.5941097349L80.98120836351191,270.21154366045L83.33075986342038,272.4450564069833L85.75862974665912,271.5334481983833L88.18649962989788,268.61067400996666L90.53605112980635,264.73588198231664L92.9671842790172,266.28547927716664L95.31673577892568,267.7249904931333L97.74460566216442,267.8756804658833L100.17247554540317,267.51002910195L102.44370866198136,265.91366629405L104.86831527924801,265.40317559153334L107.2178667791565,269.12382317231663L109.64573666239524,270.44758476171666L111.99528816230371,272.01607040006667L114.42315804554245,272.5610622992L116.85102792878119,267.9572492921L119.2005794286897,264.74823685248333L121.63171257790052,263.89789459138336L123.98126407780899,268.25573762371664L126.40913396104776,269.09244169711667L128.8370038442865,266.11922700995L131.0299185775344,266.78838462876666L133.45452519480105,265.5405207079833L135.80407669470952,267.88187623038334L138.23194657794826,268.9031385247L140.58149807785676,271.44534433723334L143.0093679610955,270.4093034805333L145.43723784433425,265.7231940395333L147.78678934424272,261.50584827245L150.21792249345359,259.32386377676664L152.56747399336203,264.5810291252L154.9953438766008,266.90740464575L157.42321375983954,264.6022279092L159.61612849308744,263.2576198044L162.04073511035412,265.44564836263334L164.3902866102626,269.0251743108167L166.81815649350133,271.44993823106665L169.16770799340978,273.24506572716666L171.59557787664855,272.61119587866665L174.02344775988732,267.43447019941664L176.37299925979576,263.1759952853L178.8041324090066,263.20211904346667L181.15368390891507,266.01676836831666L183.58155379215384,267.6065417406833L186.00942367539258,266.49250340755L188.2023384086405,265.38841497143335L190.62694502590713,265.0749694516667L192.9764965258156,268.17658425658334L195.40436640905435,271.7174965607333L197.75391790896285,275.84304592313333L200.1817877922016,276.22430930231667L202.60965767544033,270.88713500325L204.9592091753488,266.8857468183L207.39034232455964,265.97197891826664L209.73989382446814,269.9661985872L212.16776370770688,271.7643042925L214.59563359094562,270.7940278914833L216.86686670752383,271.3122200607833L219.29147332479047,271.35583519141665L221.64102482469892,275.8882392823833L224.0688947079377,279.0268609441667L226.4184462078462,277.69487039066667L228.8463160910849,279.50740010553335L231.27418597432367,275.3886416963L233.62373747423212,269.21863122251665L236.054870623443,268.67287062915L238.40442212335145,271.03658536586664L240.83229200659022,273.7570297071333L243.26016188982896,273.81404028698336L245.45307662307687,275.22582325918336L247.87768324034352,273.1474572055333L250.22723474025202,275.274631104L252.65510462349073,277.7945200047667L255.0046561233992,280.84388043436667L257.432526006638,280.6534742147667L259.8603958898767,278.19301054836666L262.2099473897852,272.53209371543335L264.64108053899605,270.62497385235L266.9906320389045,274.5914833987667L269.41850192214326,276.76010929995L271.84637180538203,276.4227749612833L274.0392865386299,276.01042567615L276.4638931558965,277.3858826553333L278.81344465580503,276.22652054773334L281.2413145390438,279.97256875285L283.59086603895224,283.09893671186666L286.018735922191,282.0843570843667L288.4466058054297,278.52610687095L290.7961573053382,274.25030055353335L293.22729045454906,271.54499074451667L295.57684195445756,272.00662637666665L298.0047118376963,274.18073036175L300.43258172093505,276.3161175053L302.62549645418295,275.02272092823335L305.0501030714496,273.28046698608335L307.39965457135804,276.65654744753334L309.8275244545968,278.55273241175L312.17707595450526,280.4033421697333L314.604945837744,280.9020072002833L317.0328157209828,275.24165332385L319.38236722089124,272.5999818587L321.81350037010213,271.48343036020003L324.1630518700106,272.71973086183334L326.59092175324935,276.4332512921L329.01879163648806,277.00636853915L331.2900247530663,273.1800766283667L333.71463137033294,270.0639605444667L336.06418287024144,269.56420490548334L338.49205275348015,274.58441151103335L340.84160425338865,278.72508796066666L343.26947413662737,278.51183381578335L345.69734401986614,274.29565821433334L348.04689551977464,271.79267916103333L350.4780286689855,266.38588406621665L352.8275801688939,266.73422795531667L355.2554500521327,269.09815695586667L357.68331993537146,271.3461553214833L359.8762346686193,271.8911193576L362.30084128588595,271.60052057481664L364.65039278579445,273.75150081133336L367.07826266903317,275.63932118558336L369.42781416894167,277.96181311835L371.85568405218044,278.92472053245L374.28355393541915,276.08212271863334L376.63310543532765,270.4430718899L379.0642385845385,268.8966541747L381.413790084447,268.51009467866663L383.8416599676857,274.4943300984833L386.26952985092447,278.2695506672333L388.4624445841724,276.61287066076665L390.887051201439,277.5745636671667L393.23660270134746,277.43473842065L395.66447258458624,279.6191968928667L398.0140240844947,281.46931298318333L400.44189396773345,281.68137025785L402.8697638509722,278.3674230192833L405.21931535088066,274.38638011986666L407.6504485000915,273.42988151785L410,274.14991733756665" data-legend="c" style="stroke: rgb(255, 127, 14); fill: none;"></path><path class="line" d="M2.4278698832387517,208.99654814493334L4.777421383147221,206.36443702776666L7.208554532358068,202.3364734685333L9.558106032266537,211.61086403178334L11.98597591550529,209.60524076910002L14.413845798744042,219.25584963560001L16.606760531991945,213.56010415636666L19.031367149258603,219.4518293455L21.38091864916707,220.59757675568335L23.808788532405824,225.49412297643335L26.158340032314293,223.80268797071665L28.58620991555304,227.9234753241L31.014079798791794,225.48275545491666L33.36363129870026,221.8510999249167L35.79476444791111,223.55623233305L38.144315947819585,226.39917310451665L40.572185831058334,225.3167586650667L43.00005571429709,214.64722603485L45.19297044754499,221.66589458514997L47.61757706481165,216.46361518893335L49.96712856472011,221.857319289L52.39499844795886,214.82666956003334L54.74454994786734,226.12293144208334L57.17241983110608,230.64126501894998L59.60028971434485,225.08161193866667L61.94984121425331,222.91988929928334L64.38097436346416,218.81027776573333L66.73052586337262,224.46175076963334L69.15839574661138,226.8626512499L71.58626562985012,230.41222510906667L73.77918036309804,230.62475917143334L76.2037869803647,227.06855170723333L78.55333848027315,235.21642919366667L80.98120836351191,235.65828602325L83.33075986342038,235.99337484036664L85.75862974665912,238.32247109646667L88.18649962989788,235.36913191713333L90.53605112980635,228.25120983304998L92.9671842790172,231.26657336476666L95.31673577892568,229.74586048431667L97.74460566216442,234.57169492111666L100.17247554540317,231.09210576046667L102.44370866198136,234.55323895196665L104.86831527924801,231.2084889996L107.2178667791565,237.91176529130001L109.64573666239524,240.49857866956665L111.99528816230371,237.7295602829L114.42315804554245,238.90215815065L116.85102792878119,237.80309425486666L119.2005794286897,233.91553001826668L121.63171257790052,229.00787744090002L123.98126407780899,229.63747383545L126.40913396104776,235.7582569159L128.8370038442865,233.57527624008333L131.0299185775344,230.70770300818333L133.45452519480105,230.4352930817L135.80407669470952,231.27043903501666L138.23194657794826,234.46651865706667L140.58149807785676,237.59012385083332L143.0093679610955,238.52269211290002L145.43723784433425,233.79494655004999L147.78678934424272,227.56985537626667L150.21792249345359,222.8674014981833L152.56747399336203,229.08103115088335L154.9953438766008,231.78202915841666L157.42321375983954,231.65829683803332L159.61612849308744,230.0925746476L162.04073511035412,229.94128955701666L164.3902866102626,235.50643030141666L166.81815649350133,241.57773177816665L169.16770799340978,240.69401825966668L171.59557787664855,239.81846073076667L174.02344775988732,237.66517466875L176.37299925979576,233.7768885994L178.8041324090066,234.17178641553335L181.15368390891507,234.44935517061666L183.58155379215384,238.10283053756666L186.00942367539258,235.52571797508335L188.2023384086405,234.72663298290001L190.62694502590713,236.84316627675L192.9764965258156,238.41387251473333L195.40436640905435,241.77341837738334L197.75391790896285,242.46299597756666L200.1817877922016,245.71371478053334L202.60965767544033,244.19168597766665L204.9592091753488,236.500987302L207.39034232455964,233.29076298866667L209.73989382446814,236.15505035165L212.16776370770688,243.44512591043332L214.59563359094562,241.57022007481666L216.86686670752383,241.5159349699333L219.29147332479047,241.14832944635L221.64102482469892,245.59989208723334L224.0688947079377,247.87276356458332L226.4184462078462,248.03075940125L228.8463160910849,253.58157702311667L231.27418597432367,249.59036655131666L233.62373747423212,242.72764967404999L236.054870623443,241.66738694095L238.40442212335145,245.84785133566666L240.83229200659022,246.21905072055L243.26016188982896,250.37640515301666L245.45307662307687,248.0886225825L247.87768324034352,244.66491795371667L250.22723474025202,252.21806674858334L252.65510462349073,255.79674432921666L255.0046561233992,253.01788466256667L257.432526006638,254.58927297293332L259.8603958898767,253.63418671353332L262.2099473897852,248.38883314831668L264.64108053899605,249.87618461343334L266.9906320389045,248.40704582566667L269.41850192214326,250.11772217566667L271.84637180538203,249.76499788763334L274.0392865386299,249.53715608126666L276.4638931558965,251.71440297486666L278.81344465580503,252.91544280996666L281.2413145390438,255.27134220918333L283.59086603895224,258.6980265896L286.018735922191,258.4101146601167L288.4466058054297,256.25645094475L290.7961573053382,254.69063515225L293.22729045454906,251.02487696961668L295.57684195445756,254.54591935863334L298.0047118376963,255.84022375193334L300.43258172093505,256.9835136170833L302.62549645418295,253.60312992593333L305.0501030714496,251.84756869873334L307.39965457135804,253.97207274223334L309.8275244545968,254.74178684103333L312.17707595450526,252.32822164805L314.604945837744,259.47378803571667L317.0328157209828,253.32483346183332L319.38236722089124,246.52737678841666L321.81350037010213,246.23142214306665L324.1630518700106,246.59734628128334L326.59092175324935,251.43020634406668L329.01879163648806,252.52628009494998L331.2900247530663,249.92175273866667L333.71463137033294,242.74306572301668L336.06418287024144,242.15213204008333L338.49205275348015,244.87571551793332L340.84160425338865,247.62942491793333L343.26947413662737,245.77444803905001L345.69734401986614,253.37296631198333L348.04689551977464,248.60923062306665L350.4780286689855,246.16255467281667L352.8275801688939,244.09240575955L355.2554500521327,250.57389137083334L357.68331993537146,247.65335113171668L359.8762346686193,251.32392149415L362.30084128588595,251.26402378641666L364.65039278579445,247.3522925364L367.07826266903317,250.09254190455L369.42781416894167,252.37476024836667L371.85568405218044,255.2356661962L374.28355393541915,249.45841289603334L376.63310543532765,247.30236624645L379.0642385845385,246.06502582801667L381.413790084447,246.37761619924999L383.8416599676857,252.18797767588333L386.26952985092447,257.72729388535L388.4624445841724,257.1965057273333L390.887051201439,253.68317498625L393.23660270134746,254.34828444786666L395.66447258458624,258.40048894213334L398.0140240844947,259.44156548838333L400.44189396773345,260.5510438576L402.8697638509722,259.47829785223337L405.21931535088066,259.0283874744L407.6504485000915,259.63036667975L410,259.35215776568333" data-legend="c++" style="stroke: rgb(44, 160, 44); fill: none;"></path><path class="line" d="M2.4278698832387517,235.18719675575L4.777421383147221,241.24600194688333L7.208554532358068,240.12454095481667L9.558106032266537,238.74297222456667L11.98597591550529,233.00153139358332L14.413845798744042,239.77752205601666L16.606760531991945,237.04472790798334L19.031367149258603,239.15369034054999L21.38091864916707,234.84426668758334L23.808788532405824,237.83229621153333L26.158340032314293,239.6142803645L28.58620991555304,241.61801501251665L31.014079798791794,240.6310248799L33.36363129870026,234.1806416924L35.79476444791111,232.0451223888L38.144315947819585,229.25053685833333L40.572185831058334,227.26143996171666L43.00005571429709,230.17273061375L45.19297044754499,233.37579781758333L47.61757706481165,239.21880558745L49.96712856472011,235.1451313586L52.39499844795886,233.5129628625L54.74454994786734,228.47042707851665L57.17241983110608,234.30699283733333L59.60028971434485,238.33155021534998L61.94984121425331,229.75976260378334L64.38097436346416,237.22195713259998L66.73052586337262,240.1435974639L69.15839574661138,239.20615327775L71.58626562985012,239.07275655813334L73.77918036309804,237.76657232830001L76.2037869803647,241.50417827298332L78.55333848027315,241.34099655223332L80.98120836351191,241.41997837253334L83.33075986342038,239.15296402725L85.75862974665912,240.3201238544833L88.18649962989788,242.36821400473332L90.53605112980635,240.27531742655L92.9671842790172,240.47399823218333L95.31673577892568,241.62138819601665L97.74460566216442,239.41983450150002L100.17247554540317,239.3529541982L102.44370866198136,237.07907879369998L104.86831527924801,236.1898090494L107.2178667791565,236.61800123406667L109.64573666239524,232.50279532586666L111.99528816230371,232.44200209615L114.42315804554245,230.5851744434167L116.85102792878119,233.50622222561668L119.2005794286897,231.45428346401667L121.63171257790052,227.6371981957L123.98126407780899,228.80763943076667L126.40913396104776,230.159987058L128.8370038442865,226.31041450255L131.0299185775344,226.4862149578L133.45452519480105,222.51019988846667L135.80407669470952,221.4576872936L138.23194657794826,219.55953357890002L140.58149807785676,218.32570545958333L143.0093679610955,221.8600654680667L145.43723784433425,219.48088759313333L147.78678934424272,213.80439766798332L150.21792249345359,209.88525147926666L152.56747399336203,214.46576807613334L154.9953438766008,212.76798966035L157.42321375983954,211.81341528271668L159.61612849308744,207.89371681073334L162.04073511035412,207.23611823616665L164.3902866102626,212.09666508506666L166.81815649350133,208.05929818908334L169.16770799340978,206.22040383378334L171.59557787664855,206.65657659431668L174.02344775988732,211.52997421811665L176.37299925979576,207.1693884830833L178.8041324090066,203.88538193628332L181.15368390891507,202.55839486121667L183.58155379215384,202.23359260224998L186.00942367539258,198.41140789275L188.2023384086405,197.50835467288334L190.62694502590713,198.8411963282L192.9764965258156,198.6730150811L195.40436640905435,194.5346697397L197.75391790896285,194.24355156175L200.1817877922016,196.17331645908334L202.60965767544033,196.47604964013334L204.9592091753488,187.5682823828L207.39034232455964,184.26893909428333L209.73989382446814,186.56277015818333L212.16776370770688,185.49887391148332L214.59563359094562,181.89194057856668L216.86686670752383,182.83183893504997L219.29147332479047,183.39014326355L221.64102482469892,183.75415765915L224.0688947079377,182.28038870096665L226.4184462078462,178.09191310698333L228.8463160910849,180.53388128361667L231.27418597432367,179.05219295148333L233.62373747423212,170.43414495558332L236.054870623443,163.87776465278333L238.40442212335145,164.76480836238332L240.83229200659022,164.1573968801833L243.26016188982896,158.16338885718335L245.45307662307687,157.12472591428332L247.87768324034352,152.69731436885L250.22723474025202,154.05627750145L252.65510462349073,148.87622521946665L255.0046561233992,141.71390157538335L257.432526006638,143.8519986033333L259.8603958898767,139.66670612693335L262.2099473897852,132.50118242608335L264.64108053899605,131.07118737263335L266.9906320389045,127.0970132833167L269.41850192214326,129.59163741990002L271.84637180538203,120.74487748205004L274.0392865386299,125.72251182435L276.4638931558965,124.12393614154996L278.81344465580503,123.52338043799998L281.2413145390438,116.59721494218334L283.59086603895224,110.62358585634999L286.018735922191,111.14992833743332L288.4466058054297,112.85531394013333L290.7961573053382,109.16167147763335L293.22729045454906,96.87570544946666L295.57684195445756,99.22743401744998L298.0047118376963,108.48256916441665L300.43258172093505,97.99448761098333L302.62549645418295,91.37675182030003L305.0501030714496,81.84922077208336L307.39965457135804,89.19410360026663L309.8275244545968,85.85077478876667L312.17707595450526,79.24678142791669L314.604945837744,77.87641169798329L317.0328157209828,91.72843898871665L319.38236722089124,74.01898643163335L321.81350037010213,65.88430940308331L324.1630518700106,69.84817715888335L326.59092175324935,70.75562970674997L329.01879163648806,67.38109505428329L331.2900247530663,55.307322864399964L333.71463137033294,45.85214119571668L336.06418287024144,34.300563405199966L338.49205275348015,34.395828432533335L340.84160425338865,33.60198362938331L343.26947413662737,38.41875248311669L345.69734401986614,41.338909545949946L348.04689551977464,29.197843179183337L350.4780286689855,23.344355172550024L352.8275801688939,20.901553909649977L355.2554500521327,24.565822489433288L357.68331993537146,26.068733425916662L359.8762346686193,29.56226580645L362.30084128588595,19.437838478583387L364.65039278579445,17.973063262666642L367.07826266903317,26.936211256233378L369.42781416894167,20.655483675216658L371.85568405218044,26.667932283983305L374.28355393541915,32.82357130639997L376.63310543532765,20.252700454083367L379.0642385845385,17.03129747798323L381.413790084447,14.814881144266622L383.8416599676857,28.19766703738327L386.26952985092447,25.037544434733377L388.4624445841724,26.084557091516672L390.887051201439,16.283701759883343L393.23660270134746,27.428223515733293L395.66447258458624,26.867665252099982L398.0140240844947,20.83252440476673L400.44189396773345,33.03487964478336L402.8697638509722,34.34460380093333L405.21931535088066,18.377422351166672L407.6504485000915,21.22559059503334L410,28.06816957235003" data-legend="python" style="stroke: rgb(214, 39, 40); fill: none;"></path><path class="line" d="M2.4278698832387517,299.27583460063335L4.777421383147221,300L7.208554532358068,299.86694342435L9.558106032266537,299.86014377221665L11.98597591550529,299.14922579548335L14.413845798744042,299.1369390103667L16.606760531991945,299.6703912456L19.031367149258603,299.05051272313335L21.38091864916707,299.86929642265L23.808788532405824,299.70197649191664L26.158340032314293,297.39940914576664L28.58620991555304,297.5802881001667L31.014079798791794,292.9614101661833L33.36363129870026,296.6163287630667L35.79476444791111,295.88682646785L38.144315947819585,296.4357953077333L40.572185831058334,296.48461457913334L43.00005571429709,295.42485130768335L45.19297044754499,295.52836112828334L47.61757706481165,294.6300435637833L49.96712856472011,295.50606842415L52.39499844795886,294.69550383673334L54.74454994786734,293.5374826009167L57.17241983110608,292.5366836503333L59.60028971434485,293.525910076L61.94984121425331,294.3702581263L64.38097436346416,294.16802826338335L66.73052586337262,294.61992028798335L69.15839574661138,294.7729047535167L71.58626562985012,293.48436652665L73.77918036309804,292.99105778558334L76.2037869803647,291.66097300328335L78.55333848027315,292.8908291696333L80.98120836351191,292.49797242498335L83.33075986342038,292.4668742018L85.75862974665912,290.85449596725L88.18649962989788,289.96852871755L90.53605112980635,289.77373565436665L92.9671842790172,290.7005008839167L95.31673577892568,290.1064124627L97.74460566216442,290.07354210545L100.17247554540317,289.02602977145L102.44370866198136,288.89630802243335L104.86831527924801,289.10336239105L107.2178667791565,289.12740590355L109.64573666239524,287.5393712372L111.99528816230371,286.7929071183833L114.42315804554245,287.09801245415L116.85102792878119,286.5897032243167L119.2005794286897,285.82545734436667L121.63171257790052,284.7639373157833L123.98126407780899,284.9638960106167L126.40913396104776,283.96085042615L128.8370038442865,281.85428199498335L131.0299185775344,282.14803222628336L133.45452519480105,282.04623949436666L135.80407669470952,282.07711976595L138.23194657794826,281.1701241117833L140.58149807785676,281.32453325583333L143.0093679610955,281.1202882013667L145.43723784433425,282.68950437318335L147.78678934424272,281.0122205967L150.21792249345359,279.21525469155L152.56747399336203,280.6851651535L154.9953438766008,279.17509959734997L157.42321375983954,276.6394334928833L159.61612849308744,277.34892825303336L162.04073511035412,276.42254937015L164.3902866102626,275.41831735525L166.81815649350133,275.2304456867167L169.16770799340978,275.05398340721666L171.59557787664855,274.65176945416664L174.02344775988732,276.17648780863334L176.37299925979576,273.1307867678L178.8041324090066,272.81860513725L181.15368390891507,274.5799819245167L183.58155379215384,272.83031526535L186.00942367539258,270.4081876659L188.2023384086405,268.50761066076666L190.62694502590713,270.5745565405333L192.9764965258156,269.02617274846665L195.40436640905435,269.3680656054167L197.75391790896285,265.8127144756333L200.1817877922016,267.694664624L202.60965767544033,268.5452632811667L204.9592091753488,266.85872212854997L207.39034232455964,266.6783452568L209.73989382446814,269.05106817138335L212.16776370770688,267.1820330443L214.59563359094562,268.01165741886666L216.86686670752383,266.30311031543334L219.29147332479047,264.7693004263L221.64102482469892,266.2772577376L224.0688947079377,264.7589229349L226.4184462078462,264.4125745406L228.8463160910849,264.9756106591167L231.27418597432367,267.6295406926167L233.62373747423212,263.67088218808334L236.054870623443,265.83018813565L238.40442212335145,267.35523477685L240.83229200659022,266.7963579785L243.26016188982896,264.6849901118L245.45307662307687,261.5737238418333L247.87768324034352,259.84367109121666L250.22723474025202,261.0852822264333L252.65510462349073,258.01540410765L255.0046561233992,257.12811755079997L257.432526006638,256.65770976606666L259.8603958898767,256.1783354828833L262.2099473897852,255.07770369886669L264.64108053899605,255.14556027708335L266.9906320389045,256.97691924631664L269.41850192214326,255.9040664033L271.84637180538203,250.51313195325L274.0392865386299,250.32609457911667L276.4638931558965,250.9992911065L278.81344465580503,252.43293667308333L281.2413145390438,251.03435021141667L283.59086603895224,253.49038646395002L286.018735922191,256.25597188098334L288.4466058054297,256.05751024545L290.7961573053382,254.12216263788332L293.22729045454906,252.30032958599998L295.57684195445756,256.56553261548333L298.0047118376963,255.3876511027L300.43258172093505,250.98175002193332L302.62549645418295,252.85800941581667L305.0501030714496,249.38047249298333L307.39965457135804,252.08449212913334L309.8275244545968,250.91014042736666L312.17707595450526,253.03289598783334L314.604945837744,251.29950189871667L317.0328157209828,251.38518254956665L319.38236722089124,251.5162375804L321.81350037010213,251.28182378648333L324.1630518700106,252.43766509398333L326.59092175324935,252.37241667758332L329.01879163648806,245.69786832778334L331.2900247530663,244.75203712698334L333.71463137033294,243.21268676645002L336.06418287024144,245.73546853253333L338.49205275348015,246.74782404141666L340.84160425338865,249.89184999411665L343.26947413662737,248.9641863897L345.69734401986614,243.42903769891666L348.04689551977464,239.78479298796668L350.4780286689855,240.10303674113334L352.8275801688939,245.46121253676668L355.2554500521327,247.79525153306668L357.68331993537146,244.66138341428334L359.8762346686193,241.44171647343333L362.30084128588595,240.7315211996L364.65039278579445,241.36160635791668L367.07826266903317,244.13597142931667L369.42781416894167,245.15512066144998L371.85568405218044,244.42289226571665L374.28355393541915,245.26647543581666L376.63310543532765,241.04126124601666L379.0642385845385,243.25151648155L381.413790084447,247.03427773201668L383.8416599676857,248.0618737844L386.26952985092447,247.0213115196L388.4624445841724,243.11936072936666L390.887051201439,242.29478484425L393.23660270134746,242.929432919L395.66447258458624,245.75798350806667L398.0140240844947,247.84277415213333L400.44189396773345,247.14984030538332L402.8697638509722,247.12620140875L405.21931535088066,242.34708808898333L407.6504485000915,243.71250526561667L410,250.21854950416667" data-legend="r" style="stroke: rgb(148, 103, 189); fill: none;"></path><path class="line" d="M2.4278698832387517,300L4.777421383147221,300L7.208554532358068,300L9.558106032266537,300L11.98597591550529,300L14.413845798744042,300L16.606760531991945,300L19.031367149258603,300L21.38091864916707,300L23.808788532405824,300L26.158340032314293,300L28.58620991555304,300L31.014079798791794,300L33.36363129870026,300L35.79476444791111,300L38.144315947819585,300L40.572185831058334,300L43.00005571429709,300L45.19297044754499,300L47.61757706481165,300L49.96712856472011,300L52.39499844795886,300L54.74454994786734,300L57.17241983110608,300L59.60028971434485,300L61.94984121425331,300L64.38097436346416,300L66.73052586337262,300L69.15839574661138,300L71.58626562985012,300L73.77918036309804,300L76.2037869803647,300L78.55333848027315,300L80.98120836351191,300L83.33075986342038,300L85.75862974665912,300L88.18649962989788,300L90.53605112980635,300L92.9671842790172,300L95.31673577892568,300L97.74460566216442,300L100.17247554540317,300L102.44370866198136,299.98749584238334L104.86831527924801,299.96108343711666L107.2178667791565,299.987559961L109.64573666239524,300L111.99528816230371,300L114.42315804554245,300L116.85102792878119,299.98732486128335L119.2005794286897,300L121.63171257790052,299.9886720723667L123.98126407780899,299.9876144118833L126.40913396104776,299.9254983098833L128.8370038442865,299.9890424408333L131.0299185775344,299.97101953285L133.45452519480105,299.98043186866664L135.80407669470952,299.96977591866664L138.23194657794826,299.93638555443334L140.58149807785676,299.9335054592167L143.0093679610955,299.96058515283335L145.43723784433425,299.9392614188667L147.78678934424272,299.89082254296665L150.21792249345359,299.8859547582667L152.56747399336203,299.8176890261L154.9953438766008,299.75145046408335L157.42321375983954,299.6430776698833L159.61612849308744,299.61238807706667L162.04073511035412,299.67181570553333L164.3902866102626,299.63794420911665L166.81815649350133,299.5661712755833L169.16770799340978,299.40334128878334L171.59557787664855,299.53856376435L174.02344775988732,299.48516986366667L176.37299925979576,299.51534608168333L178.8041324090066,299.4171826609833L181.15368390891507,299.54703404363335L183.58155379215384,299.5049034764L186.00942367539258,299.39222203625L188.2023384086405,299.3637901143667L190.62694502590713,299.5137021063L192.9764965258156,299.33117501705L195.40436640905435,299.34787657895L197.75391790896285,299.4761556350333L200.1817877922016,299.48193047508335L202.60965767544033,299.39564600721667L204.9592091753488,299.2343004569L207.39034232455964,299.28421544363334L209.73989382446814,299.40613877271664L212.16776370770688,299.3043110453167L214.59563359094562,299.1617217165833L216.86686670752383,299.2748876075833L219.29147332479047,299.19697241515L221.64102482469892,299.1036850083L224.0688947079377,299.21544586395L226.4184462078462,299.0587349397667L228.8463160910849,299.15771156713333L231.27418597432367,298.9602216101333L233.62373747423212,299.06897637311664L236.054870623443,299.09725623518335L238.40442212335145,299.21187987391664L240.83229200659022,299.13348682996667L243.26016188982896,299.2792855125L245.45307662307687,299.1984088415667L247.87768324034352,299.25566635763334L250.22723474025202,299.18814914241665L252.65510462349073,299.055889456L255.0046561233992,299.15735544433335L257.432526006638,299.23145238421665L259.8603958898767,299.0238776150333L262.2099473897852,298.97094299223335L264.64108053899605,298.96405468995L266.9906320389045,299.166174478L269.41850192214326,299.0128559757L271.84637180538203,299.0648324179833L274.0392865386299,299.23054146505L276.4638931558965,299.00506174836664L278.81344465580503,299.25613637233334L281.2413145390438,298.8315511758833L283.59086603895224,299.32395746848334L286.018735922191,298.38972495223334L288.4466058054297,298.29145046495L290.7961573053382,298.6104005204833L293.22729045454906,298.8825680617667L295.57684195445756,299.04132282113335L298.0047118376963,299.01565448795L300.43258172093505,298.86889839938334L302.62549645418295,298.75113604641666L305.0501030714496,298.90963158765L307.39965457135804,298.4698311006333L309.8275244545968,298.61911444183335L312.17707595450526,298.8255427670333L314.604945837744,298.70542979731664L317.0328157209828,298.02328569453334L319.38236722089124,298.3075483344333L321.81350037010213,298.9421456017167L324.1630518700106,298.6003593259333L326.59092175324935,298.33389636146666L329.01879163648806,298.86193137215L331.2900247530663,298.7804219955833L333.71463137033294,298.7476772175L336.06418287024144,298.4836258671833L338.49205275348015,298.7747980867333L340.84160425338865,298.5390618342167L343.26947413662737,298.4221578977333L345.69734401986614,298.70348299185L348.04689551977464,297.9690728996L350.4780286689855,297.7058615238167L352.8275801688939,297.80237444025L355.2554500521327,297.2454176500167L357.68331993537146,297.95421010775L359.8762346686193,298.3152762607833L362.30084128588595,298.1478600375L364.65039278579445,298.14125460291666L367.07826266903317,298.0709574828667L369.42781416894167,297.33157786375L371.85568405218044,298.1290874624167L374.28355393541915,297.92506105648334L376.63310543532765,297.8424570606667L379.0642385845385,297.86173289668335L381.413790084447,298.00016715021667L383.8416599676857,297.86712168071665L386.26952985092447,298.43207580915L388.4624445841724,298.50815913568334L390.887051201439,298.5582782692667L393.23660270134746,298.3653511297L395.66447258458624,298.25025753253334L398.0140240844947,298.04612635216665L400.44189396773345,298.4663472774167L402.8697638509722,298.5429514291L405.21931535088066,298.54945222736666L407.6504485000915,298.26900822645L410,297.7264543464167" data-legend="julia" style="stroke: rgb(140, 86, 75); fill: none;"></path></g></g><g transform="translate(20, 150)"><text transform="rotate(-90)" x="-50" y="0" dy="1em" class="axis-label y-axis-label" style="text-anchor: middle; font-weight: bold;">% of Stack Overflow questions that month</text></g><g class="legend" transform="translate(530, 30)" style="font-size: 12px;"><text class="legend-title" style="font-weight: bold;">Tag</text><g class="legend-items" transform="translate(0,20)"><text y="0em" x="1em">python</text><text y="1em" x="1em">java</text><text y="2em" x="1em">c++</text><text y="3em" x="1em">r</text><text y="4em" x="1em">c</text><text y="5em" x="1em">julia</text><circle cy="-0.25em" cx="0" r="0.4em" style="fill: rgb(214, 39, 40);"></circle><circle cy="0.75em" cx="0" r="0.4em" style="fill: rgb(31, 119, 180);"></circle><circle cy="1.75em" cx="0" r="0.4em" style="fill: rgb(44, 160, 44);"></circle><circle cy="2.75em" cx="0" r="0.4em" style="fill: rgb(148, 103, 189);"></circle><circle cy="3.75em" cx="0" r="0.4em" style="fill: rgb(255, 127, 14);"></circle><circle cy="4.75em" cx="0" r="0.4em" style="fill: rgb(140, 86, 75);"></circle></g><rect class="legend-box"></rect></g></svg>
        